<svg xmlns="http://www.w3.org/2000/svg" viewBox="0 0 754.54 274.47"><defs><style>.cls-1,.cls-5{fill:#4da88f;}.cls-2{fill:#6a8cc0;}.cls-3{fill:#f2f0f2;stroke:#4ea88f;stroke-miterlimit:10;stroke-width:0.19px;}.cls-4{fill:#e85f5b;}.cls-5{font-size:7.72px;font-family:FuturaND-Light, Futura ND;font-weight:300;}.cls-6{letter-spacing:-0.01em;}.cls-7{letter-spacing:-0.03em;}.cls-8{letter-spacing:0em;}</style></defs><g id="Logo_point_made" data-name="Logo + point  + made"><circle class="cls-1" cx="271.22" cy="38.04" r="0.29"/><path class="cls-1" d="M357.23,236l-15.41-23.07a2.53,2.53,0,0,1,.79-3.55,22.08,22.08,0,0,0,10.31-18.71c0-13.08-11.27-23.72-27-23.72H300.72a2.52,2.52,0,0,0-2.52,2.52l.08,67.93a2.51,2.51,0,0,0,2.52,2.51h10l4.49-5.39h7.58V201H310.81l5-18.23H331l5,18.23h-7.95v2.4a.68.68,0,0,1,.51.65.68.68,0,0,1-1.36,0,.68.68,0,0,1,.51-.65V201H324v33.48h7.59l4.57,5.39h19A2.52,2.52,0,0,0,357.23,236Z" transform="translate(-56.71 -166.04)"/><path class="cls-1" d="M411.6,167H369.33a2.52,2.52,0,0,0-2.52,2.52V237.4a2.51,2.51,0,0,0,2.52,2.51H411.6a2.51,2.51,0,0,0,2.51-2.51V224.28a2.51,2.51,0,0,0-2.51-2.52H388.48a2.51,2.51,0,0,1-2.52-2.51v-5.42a2.52,2.52,0,0,1,2.52-2.52h18.14a2.52,2.52,0,0,0,2.52-2.52V197.67a2.52,2.52,0,0,0-2.52-2.52H388.48a2.52,2.52,0,0,1-2.52-2.52v-5.15a2.52,2.52,0,0,1,2.52-2.52H411.6a2.51,2.51,0,0,0,2.51-2.51v-13A2.51,2.51,0,0,0,411.6,167Z" transform="translate(-56.71 -166.04)"/><path class="cls-1" d="M452.45,167h-25a2.52,2.52,0,0,0-2.52,2.52v67.92a2.52,2.52,0,0,0,2.52,2.52h14.33a2.52,2.52,0,0,0,2.52-2.52V220.94a2.52,2.52,0,0,1,2.52-2.53h5.67c15.3,0,27.57-11.81,27.57-25.89C480,178.27,467.48,167,452.45,167Zm0,33.63-5.68,0a2.53,2.53,0,0,1-2.51-2.52V187.35a2.52,2.52,0,0,1,2.52-2.52h5.67c5.16,0,8.87,3.35,8.87,7.78S457.66,200.63,452.45,200.58Z" transform="translate(-56.71 -166.04)"/><path class="cls-1" d="M533,167H490.77a2.51,2.51,0,0,0-2.51,2.52V237.4a2.51,2.51,0,0,0,2.51,2.51H533a2.51,2.51,0,0,0,2.52-2.51V224.28a2.52,2.52,0,0,0-2.52-2.52H509.92a2.51,2.51,0,0,1-2.52-2.51v-5.43a2.51,2.51,0,0,1,2.52-2.51h18.14a2.52,2.52,0,0,0,2.52-2.52V197.67a2.52,2.52,0,0,0-2.52-2.52H509.92a2.52,2.52,0,0,1-2.52-2.52v-5.15a2.52,2.52,0,0,1,2.52-2.52H533a2.51,2.51,0,0,0,2.52-2.51v-13A2.52,2.52,0,0,0,533,167Z" transform="translate(-56.71 -166.04)"/><path class="cls-1" d="M593.83,167H544.37a2.48,2.48,0,0,0-2.48,2.47v13.16a2.48,2.48,0,0,0,2.48,2.48h12.57a2.47,2.47,0,0,1,2.47,2.47v49.91a2.47,2.47,0,0,0,2.47,2.47h14.47a2.47,2.47,0,0,0,2.48-2.47V187.53a2.47,2.47,0,0,1,2.47-2.47h12.53a2.48,2.48,0,0,0,2.47-2.48V169.42A2.48,2.48,0,0,0,593.83,167Z" transform="translate(-56.71 -166.04)"/><rect class="cls-1" x="547.83" y="0.91" width="19.37" height="72.96" rx="2.52"/><path class="cls-1" d="M634.67,185.06h12.48a2.52,2.52,0,0,1,2.52,2.52V237.4a2.51,2.51,0,0,0,2.52,2.51h14.37a2.51,2.51,0,0,0,2.52-2.51V187.58a2.52,2.52,0,0,1,2.52-2.52H684a2.52,2.52,0,0,0,2.52-2.52V169.47A2.52,2.52,0,0,0,684,167H634.67a2.52,2.52,0,0,0-2.52,2.52v13.07A2.52,2.52,0,0,0,634.67,185.06Z" transform="translate(-56.71 -166.04)"/><path class="cls-1" d="M684.27,239.91h15.62a2.52,2.52,0,0,0,2.31-1.5l2.39-5.5a2.51,2.51,0,0,1,2.3-1.5h24a2.49,2.49,0,0,1,2.3,1.51l2.36,5.48a2.51,2.51,0,0,0,2.31,1.51h15.66a2.51,2.51,0,0,0,2.28-3.55l-31.64-68.85a2.52,2.52,0,0,0-2.28-1.47h-6a2.51,2.51,0,0,0-2.28,1.47L682,236.36A2.5,2.5,0,0,0,684.27,239.91Zm28.62-26.18,3.67-8.47a2.51,2.51,0,0,1,4.61,0l3.66,8.46a2.52,2.52,0,0,1-2.31,3.51h-7.33A2.51,2.51,0,0,1,712.89,213.73Z" transform="translate(-56.71 -166.04)"/><path class="cls-1" d="M341.82,400.62a2.52,2.52,0,0,1,.79-3.54,22.08,22.08,0,0,0,10.31-18.72c0-13.08-11.27-23.71-27-23.71H300.72a2.52,2.52,0,0,0-2.52,2.52l.08,67.92a2.52,2.52,0,0,0,2.52,2.52h14.34a2.52,2.52,0,0,0,2.52-2.52V404.82a2.52,2.52,0,0,1,4.66-1.32l14.11,22.91a2.51,2.51,0,0,0,2.14,1.2h16.56a2.52,2.52,0,0,0,2.1-3.92Zm-16.33-13.88-5.42,0a2.52,2.52,0,0,1-2.5-2.52v-9.6a2.52,2.52,0,0,1,2.52-2.52h5.4c4.07,0,7.87,2.81,7.87,7.34S329.61,386.78,325.49,386.74Z" transform="translate(-56.71 -166.04)"/><path class="cls-1" d="M411.6,354.65H369.33a2.51,2.51,0,0,0-2.52,2.51v67.93a2.52,2.52,0,0,0,2.52,2.52H411.6a2.51,2.51,0,0,0,2.51-2.52V412a2.51,2.51,0,0,0-2.51-2.52H388.48a2.52,2.52,0,0,1-2.52-2.52v-5.42a2.52,2.52,0,0,1,2.52-2.52h18.14a2.51,2.51,0,0,0,2.52-2.51V385.36a2.51,2.51,0,0,0-2.52-2.51H388.48a2.52,2.52,0,0,1-2.52-2.52v-5.15a2.52,2.52,0,0,1,2.52-2.52H411.6a2.51,2.51,0,0,0,2.51-2.52v-13A2.51,2.51,0,0,0,411.6,354.65Z" transform="translate(-56.71 -166.04)"/><path class="cls-1" d="M452.45,354.65h-25a2.52,2.52,0,0,0-2.52,2.52v67.92a2.52,2.52,0,0,0,2.52,2.52h14.33a2.52,2.52,0,0,0,2.52-2.52V408.63a2.52,2.52,0,0,1,2.52-2.52h5.67c15.3,0,27.57-11.81,27.57-25.89C480,366,467.48,354.65,452.45,354.65Zm0,33.63-5.68,0a2.53,2.53,0,0,1-2.51-2.53V375.05a2.52,2.52,0,0,1,2.52-2.52h5.67c5.16,0,8.87,3.34,8.87,7.78S457.66,388.32,452.45,388.28Z" transform="translate(-56.71 -166.04)"/><path class="cls-1" d="M533,354.65H490.77a2.51,2.51,0,0,0-2.51,2.51v67.93a2.51,2.51,0,0,0,2.51,2.52H533a2.52,2.52,0,0,0,2.52-2.52V412a2.52,2.52,0,0,0-2.52-2.52H509.92a2.52,2.52,0,0,1-2.52-2.52v-5.42a2.52,2.52,0,0,1,2.52-2.52h18.14a2.51,2.51,0,0,0,2.52-2.51V385.36a2.51,2.51,0,0,0-2.52-2.51H509.92a2.52,2.52,0,0,1-2.52-2.52v-5.15a2.52,2.52,0,0,1,2.52-2.52H533a2.52,2.52,0,0,0,2.52-2.52v-13A2.51,2.51,0,0,0,533,354.65Z" transform="translate(-56.71 -166.04)"/><path class="cls-1" d="M593.83,354.65H544.37a2.47,2.47,0,0,0-2.48,2.47v13.16a2.48,2.48,0,0,0,2.48,2.47h12.57a2.48,2.48,0,0,1,2.47,2.48v49.91a2.48,2.48,0,0,0,2.47,2.47h14.47a2.48,2.48,0,0,0,2.48-2.47V375.23a2.48,2.48,0,0,1,2.47-2.48h12.53a2.48,2.48,0,0,0,2.47-2.47V357.12A2.47,2.47,0,0,0,593.83,354.65Z" transform="translate(-56.71 -166.04)"/><rect class="cls-1" x="547.83" y="188.6" width="19.37" height="72.96" rx="2.52"/><path class="cls-1" d="M686.56,370.23V357.17a2.52,2.52,0,0,0-2.52-2.52H634.67a2.52,2.52,0,0,0-2.52,2.52v13.06a2.52,2.52,0,0,0,2.52,2.52h12.48a2.52,2.52,0,0,1,2.52,2.52v49.82a2.52,2.52,0,0,0,2.52,2.52h14.37a2.52,2.52,0,0,0,2.52-2.52V375.27a2.52,2.52,0,0,1,2.52-2.52H684A2.52,2.52,0,0,0,686.56,370.23Z" transform="translate(-56.71 -166.04)"/><path class="cls-1" d="M739.35,398.36a2.27,2.27,0,0,0-1.7-.78H736a2.25,2.25,0,0,0-1.66.75,2.18,2.18,0,0,0-.57,1.19L731.63,414a1.58,1.58,0,0,1-1.56,1.35H707.68a1.59,1.59,0,0,1-1.57-1.35L704,399.52a2.32,2.32,0,0,0-.55-1.16,2.27,2.27,0,0,0-1.69-.78H700.1a2.26,2.26,0,0,0-2.24,2.59l2.82,19.42a2.27,2.27,0,0,0,1.55,1.82L701,425.68a2.32,2.32,0,0,0,.08,1.5,1.23,1.23,0,0,0,.94.77,1.5,1.5,0,0,0,1.49-1.25l1.48-5.17h27.77l1.48,5.17a1.5,1.5,0,0,0,1.49,1.25,1.23,1.23,0,0,0,.94-.77,2.32,2.32,0,0,0,.08-1.5l-1.22-4.27a2.3,2.3,0,0,0,1.53-1.82l2.81-19.42A2.29,2.29,0,0,0,739.35,398.36Zm-36.46,28.08c-.12.41-.43.67-.74.62a.57.57,0,0,1-.46-.38,1.1,1.1,0,0,1-.05-.74l1.26-4.41h1.39Zm32.45-3.24.79,2.74a1.16,1.16,0,0,1,0,.74.6.6,0,0,1-.47.38c-.31.05-.62-.21-.74-.62l-1.38-4.83,0-.08h1.39Zm3.87-23.13L736.4,419.5a1.59,1.59,0,0,1-1.57,1.35H702.92a1.58,1.58,0,0,1-1.57-1.35l-2.82-19.43a1.59,1.59,0,0,1,1.57-1.81h1.68a1.59,1.59,0,0,1,1.57,1.35l2.09,14.46a2.29,2.29,0,0,0,2.24,1.94h22.39a2.28,2.28,0,0,0,2.23-1.94l2.1-14.46a1.58,1.58,0,0,1,1.56-1.35h1.69a1.59,1.59,0,0,1,1.56,1.81Z" transform="translate(-56.71 -166.04)"/><path class="cls-1" d="M755.76,424.05,724.12,355.2a2.51,2.51,0,0,0-2.28-1.46h-6a2.5,2.5,0,0,0-2.28,1.46L682,424.05a2.51,2.51,0,0,0,2.28,3.56h15.62a2.51,2.51,0,0,0,1.87-.83s-.06-.06-.07-.1a1.1,1.1,0,0,1-.05-.74l1.26-4.41h1.29l.3-.68h-1.57a1.58,1.58,0,0,1-1.57-1.35l-2.82-19.43a1.59,1.59,0,0,1,1.57-1.81h1.68a1.59,1.59,0,0,1,1.57,1.35l2.09,14.46a2.29,2.29,0,0,0,2.24,1.94h22.39a2.28,2.28,0,0,0,2.23-1.94l2.1-14.46a1.58,1.58,0,0,1,1.56-1.35h1.69a1.59,1.59,0,0,1,1.56,1.81L736.4,419.5a1.59,1.59,0,0,1-1.57,1.35h-1.58l.33.76,1.18-.08.58,1.67.79,2.74a1.16,1.16,0,0,1,0,.74,1.47,1.47,0,0,1-.1.13,2.49,2.49,0,0,0,1.83.8h15.66A2.51,2.51,0,0,0,755.76,424.05Zm-22-24.53L731.63,414a1.58,1.58,0,0,1-1.56,1.35H707.68a1.59,1.59,0,0,1-1.57-1.35L704,399.52a2.32,2.32,0,0,0-.55-1.16c.06-.52.15-1.4.2-1.79s.18-5.12.47-6.89c.65-1.21,2.53-1.71,4-1.71h21.51l.74.08a3.81,3.81,0,0,1,3.06,3.29l.49,4,.37,3h0A2.18,2.18,0,0,0,733.73,399.52Z" transform="translate(-56.71 -166.04)"/><path class="cls-1" d="M708.12,388h21.51l.74.08a3.81,3.81,0,0,1,3.06,3.29l.49,4,.23,1.83a3.83,3.83,0,0,1,.63-.34l-.68-5.55a4.5,4.5,0,0,0-4.47-3.95H708.12a4.51,4.51,0,0,0-4.48,3.95L703,396.8a3.55,3.55,0,0,1,.64.34l.71-5.8a3.7,3.7,0,0,1,.43-1.34A3.83,3.83,0,0,1,708.12,388Z" transform="translate(-56.71 -166.04)"/><path class="cls-1" d="M341.82,304.3a2.52,2.52,0,0,1,.79-3.54A22.08,22.08,0,0,0,352.92,282c0-13.08-11.27-23.71-27-23.71H300.72a2.52,2.52,0,0,0-2.52,2.52l.08,67.92a2.52,2.52,0,0,0,2.52,2.52h14.34a2.52,2.52,0,0,0,2.52-2.52V308.5a2.52,2.52,0,0,1,4.66-1.32l14.11,22.91a2.51,2.51,0,0,0,2.14,1.2h16.56a2.52,2.52,0,0,0,2.1-3.92Zm-16.33-13.88-5.42,0a2.52,2.52,0,0,1-2.5-2.52v-9.6a2.52,2.52,0,0,1,2.52-2.52h5.4c4.07,0,7.87,2.81,7.87,7.33S329.61,290.46,325.49,290.42Z" transform="translate(-56.71 -166.04)"/><path class="cls-1" d="M411.6,258.33H369.33a2.51,2.51,0,0,0-2.52,2.51v67.93a2.52,2.52,0,0,0,2.52,2.52H411.6a2.51,2.51,0,0,0,2.51-2.52V315.66a2.51,2.51,0,0,0-2.51-2.52H388.48a2.52,2.52,0,0,1-2.52-2.52V305.2a2.52,2.52,0,0,1,2.52-2.52h18.14a2.51,2.51,0,0,0,2.52-2.51V289a2.51,2.51,0,0,0-2.52-2.51H388.48A2.52,2.52,0,0,1,386,284v-5.15a2.52,2.52,0,0,1,2.52-2.52H411.6a2.51,2.51,0,0,0,2.51-2.52v-13A2.51,2.51,0,0,0,411.6,258.33Z" transform="translate(-56.71 -166.04)"/><path class="cls-1" d="M452.45,258.33h-25a2.52,2.52,0,0,0-2.52,2.52v67.92a2.52,2.52,0,0,0,2.52,2.52h14.33a2.52,2.52,0,0,0,2.52-2.52V312.31a2.52,2.52,0,0,1,2.52-2.52h5.67c15.3,0,27.57-11.81,27.57-25.89C480,269.64,467.48,258.33,452.45,258.33Zm11.25,33.05-5-7.3h2.55a10.06,10.06,0,1,0-3.95,8,10.22,10.22,0,0,0,3.12-4l3.08,4.5a15.41,15.41,0,0,1-3.22,3.38,15,15,0,1,1,5.88-11.9h2.56Z" transform="translate(-56.71 -166.04)"/><path class="cls-1" d="M533,258.33H490.77a2.51,2.51,0,0,0-2.51,2.51v67.93a2.51,2.51,0,0,0,2.51,2.52H533a2.52,2.52,0,0,0,2.52-2.52V315.66a2.52,2.52,0,0,0-2.52-2.52H509.92a2.52,2.52,0,0,1-2.52-2.52V305.2a2.52,2.52,0,0,1,2.52-2.52h18.14a2.51,2.51,0,0,0,2.52-2.51V289a2.51,2.51,0,0,0-2.52-2.51H509.92A2.52,2.52,0,0,1,507.4,284v-5.15a2.52,2.52,0,0,1,2.52-2.52H533a2.52,2.52,0,0,0,2.52-2.52v-13A2.51,2.51,0,0,0,533,258.33Z" transform="translate(-56.71 -166.04)"/><path class="cls-1" d="M593.83,258.33H544.37a2.47,2.47,0,0,0-2.48,2.47V274a2.48,2.48,0,0,0,2.48,2.47h12.57a2.48,2.48,0,0,1,2.47,2.48v49.91a2.48,2.48,0,0,0,2.47,2.47h14.47a2.48,2.48,0,0,0,2.48-2.47V278.91a2.48,2.48,0,0,1,2.47-2.48h12.53A2.48,2.48,0,0,0,596.3,274V260.8A2.47,2.47,0,0,0,593.83,258.33Z" transform="translate(-56.71 -166.04)"/><rect class="cls-1" x="547.83" y="92.28" width="19.37" height="72.96" rx="2.52"/><path class="cls-1" d="M634.67,276.43h12.48a2.52,2.52,0,0,1,2.52,2.52v49.82a2.52,2.52,0,0,0,2.52,2.52h14.37a2.52,2.52,0,0,0,2.52-2.52V279a2.52,2.52,0,0,1,2.52-2.52H684a2.52,2.52,0,0,0,2.52-2.52V260.85a2.52,2.52,0,0,0-2.52-2.52H634.67a2.52,2.52,0,0,0-2.52,2.52v13.06A2.52,2.52,0,0,0,634.67,276.43Z" transform="translate(-56.71 -166.04)"/><path class="cls-1" d="M724.12,258.88a2.51,2.51,0,0,0-2.28-1.46h-6a2.5,2.5,0,0,0-2.28,1.46L682,327.73a2.51,2.51,0,0,0,2.28,3.56h15.62a2.52,2.52,0,0,0,2.31-1.51l2.39-5.49a2.5,2.5,0,0,1,2.3-1.51h24a2.5,2.5,0,0,1,2.3,1.52l2.36,5.47a2.52,2.52,0,0,0,2.31,1.52h15.66a2.51,2.51,0,0,0,2.28-3.56Zm-1.6,49.73h-7.33a2.51,2.51,0,0,1-2.3-3.51l3.67-8.46a2.51,2.51,0,0,1,4.61,0l3.66,8.47A2.51,2.51,0,0,1,722.52,308.61Z" transform="translate(-56.71 -166.04)"/><path class="cls-2" d="M774.14,416.6a6.31,6.31,0,1,0,6.3,6.31A6.29,6.29,0,0,0,774.14,416.6Z" transform="translate(-56.71 -166.04)"/><path class="cls-3" d="M789.27,416.6a6.31,6.31,0,1,0,6.3,6.31A6.29,6.29,0,0,0,789.27,416.6Z" transform="translate(-56.71 -166.04)"/><path class="cls-4" d="M804.4,416.6a6.31,6.31,0,1,0,6.3,6.31A6.3,6.3,0,0,0,804.4,416.6Z" transform="translate(-56.71 -166.04)"/><text class="cls-5" transform="translate(701.34 272.38)">Made in <tspan class="cls-6" x="31.28" y="0">F</tspan><tspan class="cls-7" x="34.71" y="0">r</tspan><tspan class="cls-8" x="36.78" y="0">ance</tspan></text></g><g id="R"><path class="cls-1" d="M267.74,413.72l-55.06-82.47a9,9,0,0,1,2.8-12.66,79,79,0,0,0,36.86-66.92c0-46.76-40.3-84.79-96.61-84.79h-90a9,9,0,0,0-9,9L57,418.74a9,9,0,0,0,9,9h35.72l16.05-19.3h27.1V288.74H101.8l18-65.15h54.27l18,65.15H163.65l-.05,8.6a2.39,2.39,0,0,1,1.82,2.3,2.43,2.43,0,1,1-4.86,0,2.39,2.39,0,0,1,1.82-2.3l.05-8.6H148.9V408.45h27.16l16.33,19.27h67.86A9,9,0,0,0,267.74,413.72Z" transform="translate(-56.71 -166.04)"/></g></svg>